<?xml version="1.0" encoding="UTF-8" standalone="no"?>
<!-- Created with Inkscape (http://www.inkscape.org/) -->

<svg
   xmlns:dc="http://purl.org/dc/elements/1.1/"
   xmlns:cc="http://creativecommons.org/ns#"
   xmlns:rdf="http://www.w3.org/1999/02/22-rdf-syntax-ns#"
   xmlns:svg="http://www.w3.org/2000/svg"
   xmlns="http://www.w3.org/2000/svg"
   version="1.1"
   width="450"
   height="470"
   id="svg2">
  <metadata
     id="metadata8">
    <rdf:RDF>
      <cc:Work
         rdf:about="">
        <dc:format>image/svg+xml</dc:format>
        <dc:type
           rdf:resource="http://purl.org/dc/dcmitype/StillImage" />
        <dc:title></dc:title>
      </cc:Work>
    </rdf:RDF>
  </metadata>
  <defs
     id="defs6" />
  <path
     d="m 196.0452,421.40269 c -8.78461,-2.01734 -20.71391,-6.56717 -28.52317,-10.87873 -3.43361,-1.8957 -10.02794,-5.49889 -14.65407,-8.00705 -4.62614,-2.50817 -9.00562,-5.39416 -9.7322,-6.41331 -0.72657,-1.01915 -3.27422,-2.49761 -5.66144,-3.28546 -5.39763,-1.78138 -9.82935,-5.03266 -8.90297,-6.53156 0.38429,-0.62178 2.15762,-1.42231 3.94074,-1.77893 1.99314,-0.39863 3.47376,-1.53448 3.84355,-2.94858 0.62853,-2.40347 4.60655,-3.20386 5.85819,-1.17867 0.88941,1.4391 4.70754,1.45606 5.59206,0.025 0.37278,-0.60314 -0.10208,-3.72276 -1.05529,-6.93247 -0.95318,-3.20976 -1.73305,-6.5013 -1.73305,-7.31456 0,-3.40443 3.49342,-1.02204 8.22566,5.6096 6.77625,9.49605 17.82052,19.53777 25.3976,23.09212 5.57246,2.61401 7.50324,2.90106 19.367,2.87927 7.2476,-0.0132 13.17747,0.37769 13.17747,0.86888 0,1.98827 -6.82371,3.52551 -18.50453,4.16871 l -12.33636,0.67928 7.53181,3.59605 c 10.11025,4.82712 24.76582,8.96089 34.75204,9.80222 31.87986,2.68586 78.36913,-22.96543 111.7981,-61.68658 32.71051,-37.88894 53.53714,-85.89856 53.28109,-122.82369 -0.30519,-44.00917 -26.00705,-81.13561 -72.22386,-104.32768 -11.14347,-5.59191 -34.19614,-13.55757 -45.42022,-15.6946 -4.31773,-0.82208 -8.50264,-1.98972 -9.2998,-2.59476 -2.80128,-2.12611 0.52075,-2.99019 7.11912,-1.85171 3.66664,0.63264 9.69463,1.66807 13.39554,2.30093 9.30713,1.59156 25.00885,6.18354 36.91431,10.79562 46.36144,17.96003 73.68138,46.32165 82.75507,85.91045 3.14168,13.70733 3.37166,39.35097 0.48482,54.05967 -6.80382,34.66589 -25.1305,68.80771 -52.29104,97.41593 -30.71458,32.3517 -60.35973,50.30024 -100.59053,60.9022 -13.6176,3.58861 -41.29116,4.71784 -52.50564,2.14251 z m -34.20535,-25.88221 c -1.52227,-1.83423 -5.60743,-2.31083 -5.60743,-0.65419 0,1.21596 1.98239,2.12472 4.90363,2.24787 1.74177,0.0734 1.8618,-0.19837 0.7038,-1.59368 z m -51.5884,1.68222 c -0.92523,-0.59792 -2.84886,-1.09487 -4.27474,-1.10431 -3.89071,-0.0258 -17.740677,-7.16667 -26.169616,-13.49279 -13.275782,-9.96378 -36.98663,-36.67747 -43.833721,-49.38504 -0.813875,-1.51048 -2.798346,-4.7919 -4.409923,-7.29204 C 22.925621,312.52818 13.20971,288.91421 8.2883627,269.3598 -5.9521655,212.77668 3.4395925,155.48783 33.528631,115.39648 56.23493,85.142075 90.317782,67.11932 124.83078,67.116583 c 16.16226,-0.0011 25.0551,2.069311 39.81279,9.269908 12.09598,5.901893 20.87624,12.08151 37.5698,26.442029 23.79714,20.47127 33.19794,27.00552 44.39538,30.85799 3.53247,1.21536 7.85768,2.20974 9.61158,2.20974 6.14188,0 3.11877,2.07195 -4.1605,2.8515 -15.71346,1.68277 -21.28483,-0.95517 -63.30429,-29.97334 C 149.46449,81.640434 113.97757,73.700832 81.839026,84.853639 c -11.659191,4.046 -19.43214,9.164557 -29.904237,19.692211 -14.764455,14.84279 -24.737721,33.83699 -31.387649,59.77818 -5.602047,21.85343 -6.182826,27.34738 -6.182826,58.48745 0,29.78316 0.04872,30.25384 5.212755,50.35054 9.095321,35.39606 32.203426,73.46011 60.644796,99.89513 13.898912,12.91843 34.269085,23.02407 46.410185,23.02407 2.6374,0 5.10718,0.50467 5.4884,1.12148 0.91247,1.47641 -19.58442,1.47641 -21.869,0 z M 243.04782,113.74688 c 5.02176,-24.232229 6.26507,-55.474163 2.62252,-65.898377 -2.50156,-7.158925 -5.04954,-8.802937 -12.13326,-7.828674 -4.85064,0.667134 -5.74025,0.441223 -8.28553,-2.104038 -3.35174,-3.35176 -3.86464,-10.077291 -1.16638,-15.295127 2.12275,-4.104975 7.75052,-5.395983 14.40183,-3.303789 6.73756,2.119326 15.50886,11.37338 18.6503,19.676751 3.1688,8.37574 3.47569,24.654591 0.73252,38.855598 -1.84899,9.571982 -8.29594,29.696496 -11.49541,35.883576 -2.08479,4.03155 -4.16096,4.04033 -3.32659,0.0141 z m -20.13978,-2.34374 c -6.46858,-2.23807 -13.96574,-6.59789 -13.96574,-8.12149 0,-1.46609 0.93228,-1.31392 7.69325,1.25577 3.30607,1.25657 9.61443,2.64415 14.0186,3.08353 6.99361,0.69771 8.00755,1.08288 8.00755,3.04184 0,1.87692 -0.82361,2.28016 -5.04668,2.47087 -2.77568,0.12534 -7.59383,-0.65339 -10.70698,-1.73052 z m 77.99619,-1.91039 c -4.62613,-0.8833 -10.30366,-1.93102 -12.61672,-2.32826 -2.31307,-0.39723 -4.20558,-1.21929 -4.20558,-1.8268 0,-0.63799 1.30271,-0.78974 3.08409,-0.35926 1.69625,0.40992 12.42047,1.02974 23.8316,1.37739 17.9684,0.54742 22.63272,0.31163 34.82162,-1.76028 26.49226,-4.50324 54.77077,-15.291111 68.28142,-26.048447 7.82469,-6.230108 15.03561,-16.72081 17.89851,-26.039387 2.49301,-8.114573 3.39151,-27.991515 1.3231,-29.269868 -0.57141,-0.353146 -3.76953,0.37957 -7.10694,1.628257 -13.65729,5.109845 -31.45379,8.766473 -70.91897,14.571655 -42.58128,6.263544 -60.93441,11.892038 -76.1426,23.351228 -9.64128,7.264599 -9.65116,7.270735 -9.65116,5.992228 0,-3.147733 15.42527,-15.667354 25.74933,-20.89895 13.09203,-6.63423 40.54112,-14.166084 73.50227,-20.168549 16.7099,-3.042997 29.53097,-6.187787 44.29873,-10.865738 16.54067,-5.23955 17.78968,-5.811983 23.67711,-10.8514007 2.51975,-2.1568055 4.91163,-3.4210163 5.42377,-2.8666878 0.5039,0.5454062 2.0523,7.2502985 3.4409,14.8997635 2.86479,15.781504 2.59988,25.412262 -1.00984,36.711653 -7.71015,24.134851 -21.90148,37.081868 -52.03657,47.473963 -18.91836,6.524 -30.40645,8.22089 -57.99946,8.567 -18.3841,0.2306 -27.51657,-0.11942 -33.64461,-1.28951 z m -44.85948,-7.2201 c 0,-2.01178 14.97957,-17.015589 21.96413,-21.999657 18.01012,-12.851758 41.94688,-21.185079 68.75429,-23.93603 14.3037,-1.467842 32.64516,-1.547547 32.64516,-0.141862 0,1.376018 -2.40402,1.999924 -11.21488,2.91057 -23.65279,2.444651 -54.98264,11.219535 -76.02259,21.292473 -11.56047,5.534584 -29.17072,16.965955 -32.71458,21.236026 -1.62781,1.96141 -3.41153,2.29524 -3.41153,0.63849 z"
     id="path3005"
     style="fill:#c81c1d" />
</svg>
