<?xml version="1.0" encoding="UTF-8" standalone="no"?>
<!-- Created with Inkscape (http://www.inkscape.org/) -->

<svg
   xmlns:dc="http://purl.org/dc/elements/1.1/"
   xmlns:cc="http://creativecommons.org/ns#"
   xmlns:rdf="http://www.w3.org/1999/02/22-rdf-syntax-ns#"
   xmlns:svg="http://www.w3.org/2000/svg"
   xmlns="http://www.w3.org/2000/svg"
   version="1.1"
   width="128"
   height="32"
   id="svg2">
  <metadata
     id="metadata8">
    <rdf:RDF>
      <cc:Work
         rdf:about="">
        <dc:format>image/svg+xml</dc:format>
        <dc:type
           rdf:resource="http://purl.org/dc/dcmitype/StillImage" />
        <dc:title></dc:title>
      </cc:Work>
    </rdf:RDF>
  </metadata>
  <defs
     id="defs6" />
  <path
     d="m 5.5282894,10.401102 8.9995406,0.25713 0,-6.2996789 13.885006,11.6994029 -13.756441,11.699403 0,-6.171113 -9.2566705,-0.25713 z"
     id="path2997"
     style="fill:none;stroke:#000000;stroke-width:1px;stroke-linecap:butt;stroke-linejoin:miter;stroke-opacity:1" />
  <path
     d="m 37.528289,10.401102 8.999541,0.25713 0,-6.2996789 13.885006,11.6994029 -13.756441,11.699403 0,-6.171113 -9.256671,-0.25713 z"
     id="path3001"
     style="fill:none;stroke:#000000;stroke-width:1px;stroke-linecap:butt;stroke-linejoin:miter;stroke-opacity:1" />
  <path
     d="m 101.52829,10.401102 8.99954,0.25713 0,-6.2996789 13.88501,11.6994029 -13.75645,11.699403 0,-6.171113 -9.25667,-0.25713 z"
     id="path3003"
     style="fill:none;stroke:#000000;stroke-width:1px;stroke-linecap:butt;stroke-linejoin:miter;stroke-opacity:1" />
  <path
     d="m 70.556808,11.686751 8.999541,0.25713 0,-6.2996792 13.885006,11.6994032 -13.756441,11.699403 0,-6.171113 -9.256671,-0.25713 z"
     id="path3005"
     style="fill:none;stroke:#000000;stroke-width:1px;stroke-linecap:butt;stroke-linejoin:miter;stroke-opacity:1" />
  <path
     d="m 14.168136,25.39831 0,-3.325321 -0.996378,-0.07484 c -0.548007,-0.04116 -2.63892,-0.112111 -4.6464713,-0.15766 l -3.6500938,-0.08282 0.082419,-1.16112 c 0.04533,-0.638617 0.082419,-3.299575 0.082419,-5.913241 l 0,-4.7521195 2.7320035,0.080915 c 1.5026019,0.0445 3.5265416,0.115549 4.4976436,0.157881 l 1.76564,0.07697 0.03427,-3.399528 0.03427,-3.399527 7.43511,6.2654439 c 4.089311,3.4459951 7.444854,6.2914661 7.456763,6.3232691 0.01191,0.0318 -3.319428,2.899395 -7.40297,6.372424 l -7.424621,6.314597 0,-3.32532 z m 7.266598,-3.962766 c 3.383473,-2.88146 6.166898,-5.296873 6.185391,-5.367584 0.01849,-0.07071 -2.812615,-2.519356 -6.291349,-5.441435 l -6.324968,-5.3128698 -0.03459,2.9167168 -0.03459,2.916717 -1.893881,-0.07717 c -1.041635,-0.04244 -3.0654288,-0.113506 -4.49732,-0.157921 l -2.6034386,-0.08075 -3.931e-4,2.811203 c -2.163e-4,1.546162 -0.037987,3.802226 -0.083934,5.013475 l -0.083541,2.202271 1.787419,0.0781 c 0.9830804,0.04295 3.0746747,0.114528 4.6479877,0.159056 l 2.860568,0.08096 0,2.749126 c 0,1.512021 0.04835,2.749127 0.107437,2.749127 0.05909,0 2.875733,-2.357558 6.259207,-5.239018 z"
     id="path3009"
     style="fill:#6c5d53" />
  <path
     d="m 46.180789,25.348725 0,-3.275736 -0.996378,-0.07484 c -0.548008,-0.04116 -2.639485,-0.112125 -4.647727,-0.157692 l -3.651349,-0.08285 0.08367,-1.933168 c 0.04602,-1.063242 0.08367,-3.724185 0.08367,-5.913207 l 0,-3.9800405 2.732003,0.080914 c 1.502602,0.0445 3.526542,0.115549 4.497644,0.157881 l 1.76564,0.07697 0.03427,-3.3965276 0.03427,-3.3965266 7.071068,5.9643803 c 3.889087,3.2804099 7.254927,6.1185739 7.479644,6.3070329 l 0.408577,0.34265 -7.339365,6.235397 c -4.036651,3.429467 -7.388028,6.25468 -7.447504,6.27825 -0.05947,0.02357 -0.108137,-1.431226 -0.108137,-3.232882 z m 7.260656,-3.913181 c 3.384953,-2.88146 6.169163,-5.296873 6.187134,-5.367584 0.01797,-0.07071 -2.812406,-2.516559 -6.289723,-5.435219 L 47.01646,5.3260873 46.98187,8.2365881 46.94728,11.147089 45.053399,11.069919 c -1.041634,-0.04244 -3.065428,-0.113506 -4.49732,-0.157921 l -2.603438,-0.08075 -2.96e-4,2.039814 c -1.63e-4,1.121898 -0.03813,3.377951 -0.08438,5.013452 l -0.08408,2.973637 1.787864,0.07812 c 0.983325,0.04297 3.07512,0.114552 4.648432,0.15908 l 2.860569,0.08096 0,2.749126 c 0,1.512021 0.0464,2.749127 0.10312,2.749127 0.05672,0 2.872629,-2.357558 6.257582,-5.239018 z"
     id="path3011"
     style="fill:#6c5d53" />
  <path
     d="m 79.22196,26.623661 0,-3.265023 -0.996378,-0.07484 c -0.548008,-0.04116 -2.639738,-0.112132 -4.648289,-0.157708 l -3.651912,-0.08286 0.08424,-2.704829 c 0.04633,-1.487658 0.08424,-4.148222 0.08424,-5.912366 l 0,-3.207536 2.667721,0.07989 c 1.467247,0.04394 3.492144,0.114171 4.499771,0.156074 l 1.832049,0.07619 0,-3.3667663 c 0,-1.8517212 0.04983,-3.3474812 0.110726,-3.3239109 0.0609,0.02357 3.43429,2.8451336 7.496424,6.2701412 l 7.385699,6.227286 -0.843192,0.723043 c -3.99026,3.421654 -13.912095,11.828238 -13.960252,11.828238 -0.03347,0 -0.06085,-1.46926 -0.06085,-3.265023 z m 7.30851,-3.951759 6.215709,-5.287541 -0.301725,-0.298503 C 92.278505,16.921681 89.423582,14.499912 86.10018,11.704149 l -6.042548,-5.0832049 -0.03459,2.9058966 -0.03459,2.9058963 -1.893881,-0.07717 c -1.041635,-0.04244 -3.065429,-0.113505 -4.49732,-0.15792 l -2.603439,-0.08075 0,1.343933 c 0,0.739163 -0.03808,2.99521 -0.08462,5.013439 l -0.08462,3.669506 1.788106,0.07813 c 0.983458,0.04297 3.075361,0.114564 4.648674,0.159093 l 2.860568,0.08096 0,2.749126 c 0,1.51202 0.04339,2.748953 0.09642,2.748742 0.05303,-2.57e-4 2.893492,-2.379778 6.312132,-5.287924 l 0,0 z"
     id="path3013"
     style="fill:#6c5d53" />
  <path
     d="m 110.20609,25.3456 0,-3.272611 -0.99637,-0.07484 c -0.54801,-0.04116 -2.63989,-0.112135 -4.64861,-0.157716 l -3.65223,-0.08287 0.0846,-3.476368 c 0.0465,-1.912003 0.0846,-4.572564 0.0846,-5.912357 l 0,-2.4359883 2.66772,0.079886 c 1.46725,0.04394 3.49214,0.114171 4.49977,0.156074 l 1.83205,0.07619 0,-3.3560525 c 0,-1.8458287 0.0279,-3.3560522 0.062,-3.3560522 0.086,0 14.68582,12.3066617 14.77931,12.4579227 0.0601,0.09726 -13.94835,12.157984 -14.55202,12.528709 -0.12694,0.07796 -0.16071,-0.588903 -0.16071,-3.173917 z m 7.33264,-3.994818 c 5.96127,-5.070998 6.1745,-5.267787 5.94978,-5.490822 -0.1282,-0.127229 -2.98116,-2.544924 -6.33991,-5.372656 l -6.10683,-5.1413317 -0.0346,2.9005582 -0.0346,2.9005585 -1.89388,-0.07717 c -1.04163,-0.04244 -3.056,-0.113161 -4.47637,-0.157154 l -2.58249,-0.07999 -0.0852,3.120527 c -0.0469,1.716289 -0.0852,3.972465 -0.0852,5.013725 l 0,1.8932 1.76776,0.07708 c 0.97228,0.04239 3.05503,0.11351 4.62834,0.158038 l 2.86057,0.08096 0,2.759841 c 0,1.729858 0.0466,2.743847 0.12491,2.716984 0.0687,-0.02357 2.90721,-2.409628 6.30777,-5.302352 l 0,0 z"
     id="path3015"
     style="fill:#d3cebb;fill-opacity:1" />
  <path
     d="m 80.276192,25.034064 0,-2.700502 -3.117698,-0.08131 c -1.714734,-0.04472 -3.797485,-0.115764 -4.628336,-0.157874 l -1.510637,-0.07656 4.71e-4,-3.039209 c 2.58e-4,-1.671564 0.03846,-3.869604 0.08488,-4.884532 l 0.08441,-1.845323 2.518554,0.07897 c 1.385204,0.04343 3.40083,0.11335 4.479168,0.155375 l 1.960614,0.07641 0,-2.7776803 c 0,-1.5277244 0.02804,-2.7776806 0.06232,-2.7776806 0.07557,0 12.279907,10.2765709 12.279907,10.3402069 0,0.03946 -11.41107,9.761274 -11.988674,10.21391 -0.212729,0.166705 -0.224988,0.02917 -0.224988,-2.52419 z"
     id="path3785"
     style="fill:#d3cebb;fill-opacity:1" />
  <path
     d="m 47.23502,23.740896 0,-2.691712 -3.053415,-0.08218 c -1.679379,-0.0452 -3.76213,-0.117097 -4.628336,-0.159767 l -1.574919,-0.07758 3.37e-4,-2.266563 c 1.86e-4,-1.24661 0.03849,-3.444079 0.08512,-4.883266 l 0.08478,-2.616704 2.518322,0.07896 c 1.385077,0.04343 3.400598,0.113342 4.478936,0.155366 l 1.960615,0.07641 0,-2.777681 c 0,-1.5277244 0.03175,-2.7776806 0.07055,-2.7776806 0.0859,0 12.115452,10.1364166 12.208803,10.2874606 0.05383,0.0871 -11.446223,9.992695 -11.990078,10.327674 -0.1266,0.07798 -0.160707,-0.472276 -0.160707,-2.592727 z"
     id="path3787"
     style="fill:#d3cebb;fill-opacity:1" />
  <path
     d="m 15.222368,23.733309 0,-2.684125 -3.053416,-0.08218 c -1.679378,-0.0452 -3.7621292,-0.117097 -4.628335,-0.159767 l -1.5749196,-0.07758 2.494e-4,-1.302327 c 1.372e-4,-0.716279 0.038519,-2.914146 0.085292,-4.88415 l 0.085043,-3.581823 2.5824288,0.07998 c 1.4203354,0.04399 3.4357784,0.114764 4.4787604,0.15727 l 1.896332,0.07728 0,-2.8419872 0,-2.8419871 6.135359,5.1737393 c 3.374448,2.845557 6.136986,5.228085 6.138972,5.294507 0.0034,0.113409 -11.947072,10.357269 -12.082768,10.357269 -0.03465,0 -0.063,-1.207855 -0.063,-2.684123 z"
     id="path3789"
     style="fill:#d3cebb;fill-opacity:1" />
  <path
     d="m 111.26033,23.748415 0,-2.700502 -3.1177,-0.08131 c -1.71474,-0.04472 -3.79749,-0.115763 -4.62834,-0.157873 l -1.51064,-0.07657 0,-3.694423 c 0,-2.031933 0.038,-4.230336 0.0845,-4.885339 l 0.0845,-1.190915 2.45462,0.07982 c 1.35005,0.0439 3.36468,0.114632 4.47698,0.157175 l 2.02234,0.07735 0.0347,-2.796468 0.0347,-2.7964676 6.14899,5.1795976 6.14898,5.179597 -0.29928,0.28369 c -0.27531,0.260967 -11.20832,9.545633 -11.71256,9.946681 -0.20864,0.165949 -0.22184,0.01575 -0.22184,-2.524053 z"
     id="path3791"
     style="fill:#d3cebb;fill-opacity:1" />
  <path
     d="m 110.31473,27.667697 c -0.0444,-0.369447 -0.0812,-1.782794 -0.0818,-3.140771 l -10e-4,-2.469047 -0.41784,-0.068 c -0.22981,-0.0374 -2.28865,-0.122179 -4.57521,-0.188402 -2.28655,-0.06622 -4.17426,-0.13949 -4.1949,-0.162817 -0.0206,-0.02333 -0.007,-2.664473 0.0296,-5.869214 l 0.0671,-5.826801 0.91366,0.071128 c 0.50251,0.03912 2.2443,0.102916 3.87064,0.141766 1.62635,0.03885 3.2318,0.103211 3.56768,0.143024 l 0.61068,0.07239 0.0168,-2.3583729 c 0.009,-1.2971053 0.0526,-2.7860681 0.0964,-3.3088064 l 0.0796,-0.9504333 4.49977,3.7720564 c 3.76887,3.1593612 9.42852,7.9476732 9.89949,8.3754032 0.0833,0.07566 0.0334,0.193527 -0.14182,0.334809 -0.14871,0.119926 -1.62399,1.406052 -3.2784,2.858057 -3.9003,3.423125 -10.37491,8.947768 -10.73653,9.161233 -0.0943,0.05565 -0.17074,-0.144936 -0.22387,-0.587201 l 0,0 z m 4.48824,-3.918666 c 6.62004,-5.565293 8.80777,-7.50742 8.79307,-7.805922 -0.004,-0.07275 -0.45813,-0.508331 -1.01011,-0.96795 -0.55197,-0.459619 -3.33219,-2.802714 -6.17826,-5.2068772 -2.84607,-2.4041631 -5.21765,-4.3875795 -5.27017,-4.4075919 -0.0525,-0.020012 -0.13707,1.2518739 -0.18788,2.8264143 -0.0508,1.5745403 -0.10294,2.8708168 -0.11583,2.8806138 -0.0219,0.01667 -3.69026,-0.112751 -7.24587,-0.25563 l -1.56558,-0.06291 -0.0688,0.795201 c -0.0378,0.437361 -0.10195,2.71193 -0.14247,5.054598 l -0.0737,4.259398 0.67954,0.0749 c 0.37374,0.0412 2.03911,0.10719 3.70081,0.14665 1.6617,0.03946 3.44072,0.104395 3.95337,0.144297 l 0.9321,0.07255 0,1.705259 c 0,1.856204 0.12065,3.672927 0.24385,3.671847 0.0427,-3.86e-4 1.64282,-1.316557 3.55592,-2.924851 z"
     id="path3793"
     style="fill:#60534a;fill-opacity:1" />
  <path
     d="m 110.44384,27.863787 c -0.0343,-0.123744 -0.10085,-1.468853 -0.1478,-2.989133 -0.047,-1.52028 -0.12401,-2.803997 -0.17123,-2.852705 -0.0472,-0.04871 -1.90826,-0.153376 -4.13564,-0.232595 -2.22739,-0.07922 -4.23782,-0.17216 -4.46763,-0.206537 l -0.41784,-0.0625 0,-3.444815 c 0,-1.894649 0.0375,-4.481002 0.0833,-5.747452 l 0.0833,-2.302636 2.3916,0.09723 c 1.31538,0.05348 3.28834,0.143725 4.38435,0.200552 1.09602,0.05683 2.02169,0.08071 2.05704,0.05307 0.0354,-0.02764 0.0996,-1.4774631 0.1428,-3.2218265 0.0432,-1.7443634 0.0866,-3.1884549 0.0964,-3.2090921 0.01,-0.020637 0.90018,0.7017526 1.97852,1.6053108 3.66764,3.0731872 11.98791,10.0987628 12.18152,10.2859928 0.17062,0.165002 0.14683,0.226121 -0.20638,0.530318 -0.21958,0.189103 -2.50482,2.167208 -5.07832,4.39579 -4.83292,4.185189 -8.54117,7.326024 -8.64951,7.326024 -0.0341,0 -0.0901,-0.101245 -0.12446,-0.224989 l 0,0 z m 2.83387,-2.759528 c 2.39195,-1.972897 7.85866,-6.648488 9.26973,-7.928264 0.76529,-0.69408 1.05557,-1.040502 1.02852,-1.227425 -0.0222,-0.15363 -0.93397,-1.018594 -2.22329,-2.109245 -6.51975,-5.5151048 -10.15089,-8.4991382 -10.23598,-8.411817 -0.0526,0.053973 -0.15338,1.3041313 -0.22397,2.7781291 -0.0706,1.4739979 -0.15536,2.7070089 -0.18838,2.7400249 -0.033,0.03302 -1.98085,-0.01024 -4.32853,-0.09613 -3.46588,-0.126798 -4.28767,-0.125149 -4.37043,0.0088 -0.0561,0.09071 -0.13804,1.762828 -0.18216,3.715816 -0.0441,1.952987 -0.0948,4.171209 -0.11252,4.929381 l -0.0323,1.378495 0.32334,0.06259 c 0.17783,0.03442 2.14573,0.125095 4.37312,0.201497 2.22739,0.0764 4.17997,0.16666 4.33906,0.200571 0.28594,0.06095 0.28929,0.08649 0.29069,2.212671 0.001,2.196531 0.0796,3.115249 0.26502,3.115249 0.0573,0 0.96096,-0.706636 2.00808,-1.570303 l 0,0 z"
     id="path3795"
     style="fill:#60534a;fill-opacity:1" />
  <path
     d="m 110.44384,27.863787 c -0.0343,-0.123744 -0.10085,-1.468853 -0.1478,-2.989133 -0.047,-1.52028 -0.12401,-2.80323 -0.17123,-2.851001 -0.0472,-0.04777 -1.90826,-0.152555 -4.13564,-0.232854 -2.22739,-0.0803 -4.24663,-0.175659 -4.48719,-0.211911 l -0.4374,-0.06591 0.0714,-5.720676 c 0.0393,-3.146371 0.0915,-5.734199 0.11598,-5.750728 0.0432,-0.02916 2.69283,0.07728 6.81232,0.27367 l 2.01088,0.09586 0.0772,-0.6428242 c 0.0425,-0.3535534 0.0777,-1.6335774 0.0783,-2.8444978 6.2e-4,-1.2109203 0.0366,-2.3792486 0.08,-2.5962851 l 0.0789,-0.3946118 3.03878,2.5467956 c 6.66406,5.5851433 11.13836,9.4121073 11.13836,9.5268723 0,0.131634 -0.70423,0.756535 -6.30325,5.593237 -4.04228,3.491906 -7.59649,6.488984 -7.69524,6.488984 -0.0341,0 -0.0901,-0.101245 -0.12446,-0.224989 l 0,0 z m 2.49774,-2.49646 c 2.15823,-1.766469 8.85976,-7.501039 9.85744,-8.43512 0.44194,-0.413767 0.80353,-0.828514 0.80353,-0.921659 0,-0.244054 -0.47744,-0.6698 -5.33544,-4.757738 -6.13591,-5.1632781 -6.99664,-5.8531809 -7.13209,-5.7165911 -0.0643,0.064893 -0.17426,1.2952511 -0.24425,2.7341294 -0.07,1.4388782 -0.15406,2.6429457 -0.18682,2.6757057 -0.0328,0.03276 -1.97666,-0.0097 -4.31977,-0.09429 -2.34312,-0.08462 -4.3005,-0.113568 -4.34973,-0.06433 -0.10382,0.103819 -0.26188,3.895736 -0.31525,7.562914 l -0.037,2.539516 0.3857,0.06084 c 0.21213,0.03346 2.17917,0.122544 4.3712,0.197965 2.19203,0.07542 4.11569,0.164694 4.27478,0.198383 0.28595,0.06055 0.28929,0.08597 0.29069,2.212266 0.001,2.14076 0.0797,3.115249 0.25031,3.115249 0.0492,0 0.80823,-0.588256 1.68666,-1.307235 l 0,0 z"
     id="path3797"
     style="fill:#60534a;fill-opacity:1" />
  <path
     d="m 110.44248,27.863787 c -0.0351,-0.123744 -0.10352,-1.452852 -0.15208,-2.953575 -0.0575,-1.776564 -0.13919,-2.770616 -0.23415,-2.849049 -0.0802,-0.06625 -1.93934,-0.186772 -4.13137,-0.267819 -2.19203,-0.08105 -4.17353,-0.175635 -4.40334,-0.210194 l -0.41784,-0.06283 4.3e-4,-3.754695 c 2.3e-4,-2.065084 0.0382,-4.664742 0.0843,-5.777018 0.0815,-1.964264 0.0916,-2.0207226 0.35313,-1.966628 0.46648,0.09649 8.44388,0.356946 8.52257,0.278254 0.0413,-0.04126 0.11074,-1.4606729 0.1544,-3.1542544 0.0437,-1.6935817 0.10791,-3.1074829 0.14276,-3.1420025 0.0677,-0.067093 0.34972,0.1669815 8.77363,7.2829579 3.02289,2.553535 5.49615,4.680456 5.49615,4.726491 0,0.15973 -13.87675,12.075356 -14.06277,12.075356 -0.0341,0 -0.0907,-0.101245 -0.12582,-0.224989 z m 2.61775,-2.614129 c 2.57789,-2.110748 9.09218,-7.703616 9.86736,-8.471657 0.37123,-0.367811 0.67496,-0.727145 0.67496,-0.798519 0,-0.07137 -0.18802,-0.306242 -0.41783,-0.52193 -1.13425,-1.064541 -11.39037,-9.6506335 -11.77115,-9.8544224 -0.3688,-0.1973732 -0.38477,-0.1115677 -0.53263,2.8616463 -0.0663,1.3336815 -0.14663,2.4509141 -0.17845,2.4827391 -0.0318,0.03183 -1.97591,-0.01042 -4.32018,-0.09388 -2.34427,-0.08346 -4.30072,-0.11334 -4.34766,-0.0664 -0.11763,0.117632 -0.26741,4.074587 -0.27874,7.364081 l -0.009,2.726177 0.41783,0.06677 c 0.22981,0.03673 2.18239,0.128223 4.33907,0.203331 2.15667,0.07511 4.0514,0.164495 4.21049,0.198635 0.28592,0.06135 0.28929,0.08703 0.29069,2.213086 10e-4,2.100377 0.0799,3.117175 0.2404,3.113354 0.0438,-10e-4 0.86063,-0.641396 1.81522,-1.423009 z"
     id="path3799"
     style="fill:#60534a;fill-opacity:1" />
  <path
     d="m 110.43377,27.799505 c -0.033,-0.159099 -0.095,-1.330647 -0.13775,-2.603439 -0.0959,-2.856089 -0.13484,-3.108059 -0.49432,-3.195507 -0.15235,-0.03706 -2.04155,-0.133158 -4.19823,-0.213549 -2.15667,-0.08039 -4.0514,-0.171764 -4.2105,-0.203052 l -0.28927,-0.05689 4.3e-4,-3.758073 c 2.3e-4,-2.066941 0.0381,-4.666046 0.0841,-5.77579 l 0.0837,-2.017716 0.33372,0.052837 c 0.52496,0.08311 8.38006,0.350322 8.44317,0.287212 0.0311,-0.03109 0.0877,-1.2372507 0.12576,-2.6803467 0.0381,-1.4430959 0.0991,-2.8706474 0.1357,-3.1723367 l 0.0665,-0.548526 0.97502,0.8056557 c 1.55319,1.283396 12.9378,10.9049667 13.15073,11.1141837 0.17095,0.167974 0.14052,0.235786 -0.26806,0.597333 -3.79418,3.357396 -13.52483,11.657274 -13.66681,11.657274 -0.0406,0 -0.10084,-0.130172 -0.13387,-0.289271 l 0,0 z m 5.48643,-4.951144 c 3.85378,-3.259783 6.56703,-5.631378 7.2253,-6.315483 l 0.50718,-0.527093 -0.37862,-0.402813 C 122.3903,14.662732 111.53621,5.5899235 111.29513,5.5899235 c -0.23247,0 -0.27949,0.3334417 -0.41458,2.9402352 -0.0673,1.2989314 -0.14876,2.3880573 -0.18099,2.4202803 -0.0322,0.03222 -1.9775,-0.0088 -4.32284,-0.09122 -2.34534,-0.08239 -4.29917,-0.11489 -4.34184,-0.07221 -0.10854,0.10854 -0.26791,4.388038 -0.27904,7.492874 l -0.009,2.597612 0.41783,0.06556 c 0.22981,0.03605 2.18239,0.127614 4.33907,0.203466 2.15667,0.07585 4.04607,0.164446 4.19866,0.196878 0.27065,0.05752 0.2785,0.119442 0.32141,2.534362 0.0242,1.361467 0.0913,2.548491 0.14906,2.637831 0.13053,0.201775 0.62693,-0.181661 4.74764,-3.667224 l 0,0 z"
     id="path3801"
     style="fill:#60534a;fill-opacity:1" />
  <path
     d=""
     id="path3803"
     style="fill:#60534a;fill-opacity:1" />
  <path
     d=""
     id="path3805"
     style="fill:#60534a;fill-opacity:1" />
  <path
     d=""
     id="path3807"
     style="fill:#60534a;fill-opacity:1" />
  <path
     d=""
     id="path3809"
     style="fill:#60534a;fill-opacity:1" />
  <path
     d=""
     id="path3811"
     style="fill:#60534a;fill-opacity:1" />
  <path
     d=""
     id="path3813"
     style="fill:#60534a;fill-opacity:1" />
  <path
     d=""
     id="path3815"
     style="fill:#60534a;fill-opacity:1" />
  <path
     d="m 79.330908,28.450502 c -0.04578,-0.644939 -0.08323,-2.054197 -0.08323,-3.131685 0,-1.925547 -0.005,-1.960242 -0.289271,-2.02781 -0.159099,-0.03781 -1.706699,-0.103196 -3.43911,-0.145304 -1.732412,-0.04211 -3.674036,-0.108804 -4.314721,-0.148214 l -1.164881,-0.07166 0.05484,-5.807387 c 0.03016,-3.194063 0.06266,-5.817087 0.07221,-5.828944 0.02277,-0.02826 6.380963,0.186799 7.811969,0.264233 l 1.109484,0.06004 0.05254,-3.1989951 c 0.0289,-1.7594475 0.08975,-3.2362047 0.135225,-3.2816828 0.04548,-0.045478 1.518538,1.1213329 3.273466,2.5929132 6.657523,5.5826077 11.214902,9.4412147 11.285077,9.5547617 0.05785,0.0936 -13.698112,11.903658 -14.26855,12.250143 -0.110229,0.06695 -0.174599,-0.228939 -0.235038,-1.08041 z m 3.323734,-2.432066 c 6.528842,-5.473486 10.095106,-8.55137 10.063374,-8.685247 -0.01942,-0.08194 -2.179299,-1.962203 -4.799726,-4.178358 -6.902206,-5.8373551 -7.736509,-6.5363885 -7.801239,-6.5363885 -0.03205,0 -0.09898,1.2852771 -0.148733,2.8561714 -0.04975,1.5708941 -0.102075,2.8652601 -0.116279,2.8763691 -0.0229,0.01791 -1.519781,-0.03361 -7.302131,-0.251352 l -1.619453,-0.06098 -0.07342,5.03583 c -0.04038,2.769707 -0.04834,5.060905 -0.0177,5.091552 0.03065,0.03065 1.747033,0.105231 3.814191,0.165742 2.067158,0.06051 4.120058,0.14133 4.562,0.179599 l 0.80353,0.06958 0,1.705995 c 0,1.856906 0.120641,3.673758 0.243854,3.672423 0.04266,-4.63e-4 1.118934,-0.873882 2.391726,-1.940935 z"
     id="path3817"
     style="fill:#60534a;fill-opacity:1" />
  <path
     d="m 79.447556,29.163839 c -0.04531,-0.180542 -0.111115,-1.520035 -0.146227,-2.97665 -0.03511,-1.456615 -0.120726,-2.716934 -0.190253,-2.800709 -0.07694,-0.0927 -0.590721,-0.164212 -1.312699,-0.182703 -0.652456,-0.01671 -1.533409,-0.04634 -1.957673,-0.06585 -0.424264,-0.0195 -1.869,-0.07383 -3.210524,-0.120722 -1.341524,-0.04689 -2.458135,-0.10426 -2.481359,-0.127483 -0.07684,-0.07684 -0.03311,-8.205006 0.05313,-9.87518 l 0.08464,-1.639202 0.591456,-0.02025 c 0.325301,-0.01114 0.678238,-0.0124 0.784304,-0.0028 0.106066,0.0096 1.06066,0.04687 2.12132,0.08281 1.06066,0.03595 2.688194,0.09622 3.616741,0.133949 l 1.688269,0.06859 0.09453,-3.2131821 c 0.08582,-2.9171481 0.113878,-3.2025929 0.304487,-3.0982425 0.17799,0.097442 0.858875,0.6420177 3.907039,3.1248726 0.19492,0.1587706 0.508218,0.4477728 0.696218,0.6422272 0.187999,0.1944544 0.396244,0.3535534 0.462767,0.3535534 0.06652,0 0.234721,0.1446355 0.373775,0.3214122 0.139053,0.1767767 0.310212,0.3214122 0.380356,0.3214122 0.07014,0 0.273708,0.173718 0.452365,0.386039 0.178657,0.212322 0.377411,0.353543 0.441677,0.313825 0.06427,-0.03972 0.116846,-0.01823 0.116846,0.04775 0,0.06598 0.520687,0.565283 1.157084,1.109562 0.636396,0.54428 1.157083,0.968999 1.157083,0.943821 0,-0.02518 0.357389,0.285963 0.794196,0.691425 0.436808,0.405463 0.841787,0.707791 0.899954,0.671842 0.05817,-0.03595 0.105759,-0.0074 0.105759,0.06339 0,0.07081 0.723177,0.74402 1.60706,1.496019 0.883884,0.751999 1.607061,1.418215 1.607061,1.480479 0,0.06227 -0.89674,0.905583 -1.992755,1.874042 -1.096016,0.968459 -1.992756,1.809785 -1.992756,1.869612 0,0.05983 -0.04612,0.09431 -0.102498,0.07664 -0.120109,-0.03766 -2.468799,1.96536 -2.468799,2.105456 0,0.05223 -0.101245,0.12843 -0.224989,0.169337 -0.123743,0.04091 -0.539339,0.367158 -0.923548,0.725005 -0.384207,0.357848 -0.802326,0.723313 -0.929151,0.812144 -0.202998,0.142185 -1.118783,0.92246 -1.976705,1.684207 -0.159277,0.141421 -0.537173,0.459619 -0.839769,0.707106 -0.690049,0.564377 -1.226728,1.018737 -1.594508,1.349932 -0.157043,0.141421 -0.462379,0.384851 -0.678524,0.540956 l -0.392992,0.283824 -0.08239,-0.328259 0,0 z m 1.276323,-1.557182 c 0.229542,-0.194454 0.606891,-0.498188 0.838553,-0.674965 0.231662,-0.176777 0.572181,-0.447849 0.756707,-0.602384 0.184527,-0.154535 0.769409,-0.641157 1.299739,-1.081381 0.530331,-0.440226 1.079945,-0.905158 1.221367,-1.033181 0.141421,-0.128024 0.480646,-0.422433 0.753832,-0.654244 0.273188,-0.231811 0.628651,-0.537182 0.789922,-0.678604 0.161269,-0.141421 0.539769,-0.459619 0.84111,-0.707106 0.301342,-0.247488 0.677394,-0.565686 0.835672,-0.707107 0.158278,-0.141421 0.534934,-0.45962 0.837012,-0.707107 0.542409,-0.444386 1.238472,-1.039102 1.655214,-1.414213 0.117836,-0.106066 0.666495,-0.594657 1.219241,-1.085758 l 1.004991,-0.892909 -0.504678,-0.457021 C 90.43709,15.248529 88.888713,13.898125 88.681602,13.778853 88.58275,13.721926 88.366928,13.548364 88.202,13.393159 87.872973,13.083531 87.251742,12.550592 86.524281,11.953885 86.265665,11.741753 85.920304,11.452482 85.756813,11.31106 85.593321,11.169639 85.243917,10.880368 84.98036,10.668236 84.716803,10.456104 84.371221,10.166833 84.212399,10.025412 84.053577,9.8839902 83.684166,9.5748971 83.391486,9.338538 83.098804,9.1021791 82.721047,8.783981 82.552026,8.6314312 82.383004,8.4788816 81.997865,8.1515785 81.696161,7.9040912 81.394458,7.6566038 80.994932,7.3207457 80.808325,7.15774 80.059695,6.5037933 80.020637,6.519522 80.003776,7.4817319 c -0.04155,2.3708934 -0.107248,3.9982431 -0.176662,4.3757291 -0.06694,0.36402 -0.129898,0.419797 -0.488843,0.433061 -0.226606,0.0084 -0.450355,0.01006 -0.49722,0.0037 -0.09587,-0.01292 -3.036218,-0.118889 -5.98948,-0.215851 l -1.960615,-0.06437 -0.0084,1.319856 c -0.0046,0.72592 -0.03588,3.005681 -0.06949,5.066136 l -0.06112,3.746281 1.258716,0.08107 c 1.542445,0.09934 3.477273,0.18575 6.003659,0.268129 1.054083,0.03437 1.932572,0.07855 1.952198,0.09818 0.01962,0.01963 0.04432,0.93139 0.05488,2.026142 0.01966,2.03813 0.10561,3.340389 0.22046,3.340389 0.03555,0 0.252445,-0.159099 0.481987,-0.353554 l 0,0 z"
     id="path3819"
     style="fill:#60534a;fill-opacity:1" />
  <path
     d="m 79.447477,29.28191 c -0.04632,-0.120695 -0.111103,-1.378656 -0.143973,-2.795469 -0.03287,-1.416813 -0.08803,-2.702683 -0.122571,-2.857491 -0.07777,-0.348515 -0.360926,-0.390019 -3.340229,-0.4896 -3.92576,-0.131216 -5.648993,-0.206735 -5.69169,-0.249433 -0.07784,-0.07784 -0.03122,-9.254321 0.05278,-10.389632 l 0.08323,-1.124942 0.592237,-0.02025 c 0.32573,-0.01114 0.679018,-0.01468 0.785084,-0.0079 0.106066,0.0068 1.234222,0.0462 2.507015,0.08752 1.272792,0.04133 2.907173,0.103397 3.631957,0.137938 l 1.31779,0.0628 0.01743,-1.7049899 c 0.0096,-0.9377443 0.05298,-2.3955793 0.09642,-3.2396333 l 0.07899,-1.5346435 1.799909,1.4428441 c 2.162207,1.7332711 2.542498,2.0437878 3.015357,2.4621146 0.199821,0.1767767 0.543623,0.4660476 0.764004,0.6428243 0.220379,0.1767767 0.554509,0.4805117 0.742508,0.6749657 0.187999,0.194454 0.419034,0.353553 0.513412,0.353553 0.09438,0 0.171596,0.04763 0.171596,0.105845 0,0.09642 2.10478,1.951193 2.214203,1.951193 0.02586,0 0.391596,0.318176 0.812741,0.707058 0.421146,0.388882 0.838037,0.70708 0.926425,0.707107 0.08839,2.7e-5 0.160707,0.0471 0.160707,0.104598 0,0.0575 0.723177,0.727902 1.60706,1.489778 0.883884,0.761877 1.607061,1.433752 1.607061,1.493056 0,0.0593 -0.795495,0.815958 -1.767767,1.681453 -0.972271,0.865493 -1.912402,1.707708 -2.089179,1.871586 -0.176776,0.163879 -0.813173,0.712944 -1.414213,1.220147 -0.601041,0.507204 -1.150656,0.988729 -1.221367,1.070057 -0.07071,0.08133 -0.331054,0.299431 -0.578542,0.484673 -0.247487,0.185243 -0.671477,0.538225 -0.9422,0.784408 -0.270722,0.246181 -0.758269,0.66986 -1.083437,0.941507 -0.325167,0.271649 -0.653282,0.552001 -0.729143,0.623005 -0.219271,0.205231 -1.901799,1.627082 -2.509602,2.120787 -0.304684,0.247487 -0.648587,0.53754 -0.764229,0.644561 -0.115642,0.107021 -0.391454,0.323607 -0.612916,0.481302 -0.366891,0.261249 -0.410137,0.267224 -0.486866,0.06727 l 0,0 z m 1.658009,-1.996665 c 0.445673,-0.371231 1.029538,-0.848528 1.297477,-1.06066 0.629598,-0.498461 2.188788,-1.814651 2.76184,-2.331407 0.245757,-0.221612 1.285717,-1.107447 2.311022,-1.968521 1.025304,-0.861073 2.008826,-1.693816 2.185602,-1.850539 0.176777,-0.156724 0.943345,-0.82256 1.703485,-1.479637 0.76014,-0.657076 1.382072,-1.213515 1.382072,-1.236529 0,-0.02302 -0.593005,-0.55202 -1.31779,-1.175568 -0.724784,-0.623547 -1.346717,-1.172312 -1.382072,-1.219476 -0.03535,-0.04716 -0.324626,-0.300366 -0.642824,-0.562671 -1.030371,-0.84938 -1.601284,-1.324164 -1.883456,-1.566326 C 87.368824,12.70345 86.992772,12.38675 86.68517,12.130134 86.377568,11.873519 84.811348,10.557336 83.204682,9.2052836 81.598016,7.8532317 80.223979,6.7470073 80.151267,6.7470073 c -0.07897,0 -0.14027,0.4530273 -0.152231,1.1249426 -0.04403,2.4735861 -0.08963,3.5551171 -0.167325,3.9692891 -0.07956,0.424086 -0.239265,0.500022 -0.969733,0.46108 -0.03535,-0.0019 -1.134585,-0.04063 -2.442732,-0.08609 -1.308148,-0.04547 -3.087164,-0.108754 -3.95337,-0.14064 l -1.57492,-0.05798 -0.01,2.539434 c -0.0055,1.396688 -0.0354,3.676285 -0.06645,5.065772 l -0.05645,2.526337 1.448527,0.07333 c 5.16719,0.261581 7.151478,0.33725 7.310219,0.278767 0.405147,-0.14926 0.469548,0.130211 0.546927,2.373403 0.04268,1.237437 0.07903,2.437911 0.08076,2.667721 0.0017,0.22981 0.03635,0.417836 0.07692,0.417836 0.04058,0 0.438414,-0.303735 0.884086,-0.674966 l 0,0 z"
     id="path3821"
     style="fill:#60534a;fill-opacity:1" />
  <path
     d=""
     id="path3823"
     style="fill:#60534a;fill-opacity:1" />
  <path
     d="m 14.193849,25.354269 0,-3.280167 -0.289271,-0.06874 c -0.159099,-0.03781 -1.706699,-0.1032 -3.43911,-0.145307 C 8.7330562,21.817946 6.7949408,21.751542 6.1585447,21.71249 l -1.1570839,-0.071 0.040604,-5.805785 c 0.022332,-3.193183 0.051259,-5.816284 0.064283,-5.829114 0.033012,-0.032522 6.6075462,0.186851 7.8816742,0.262988 l 1.044057,0.06239 0.113027,-3.3291735 0.113026,-3.3291732 2.764145,2.3268388 C 27.122463,14.502731 28.875926,16.03316 28.701979,16.194548 c -0.335918,0.311665 -6.768636,5.828406 -9.815511,8.417845 -1.697057,1.442273 -3.447146,2.937253 -3.889088,3.322181 l -0.80353,0.699867 0,-3.280167 0,0 z m 4.054108,-1.156716 c 1.628719,-1.360007 4.421252,-3.738314 6.205631,-5.285128 2.789548,-2.418162 3.221465,-2.84022 3.081242,-3.010919 C 27.196474,15.489608 15.358097,5.4463533 15.110186,5.3608825 c -0.05774,-0.019907 -0.145743,1.250907 -0.195564,2.8240302 -0.04982,1.5731232 -0.102203,2.8693133 -0.116407,2.8804213 -0.02291,0.01792 -1.546763,-0.03455 -7.306737,-0.251556 l -1.6240588,-0.06119 -0.057015,5.036135 c -0.031358,2.769874 -0.037249,5.061165 -0.01309,5.091757 0.024159,0.03059 1.7352363,0.10513 3.8023944,0.165642 2.0671574,0.06051 4.1200574,0.14133 4.5619994,0.179598 l 0.80353,0.06958 0,1.705995 c 0,1.857442 0.120699,3.674519 0.243854,3.671128 0.04266,-0.0012 1.410146,-1.114869 3.038865,-2.474874 l 0,0 z"
     id="path3825"
     style="fill:#60534a;fill-opacity:1" />
  <path
     d="m 80.360702,25.999597 c -0.04584,-0.795496 -0.0836,-1.946872 -0.08393,-2.558615 l -5.85e-4,-1.11226 -1.446355,-0.07577 c -0.795495,-0.04167 -2.844518,-0.1197 -4.553385,-0.173389 -1.708867,-0.05369 -3.144982,-0.135588 -3.191367,-0.181999 -0.09184,-0.09189 0.10309,-9.44808 0.198842,-9.543831 0.05199,-0.05199 4.713664,0.08216 7.738757,0.222712 l 1.124943,0.05227 4.76e-4,-0.915954 c 2.57e-4,-0.503775 0.038,-1.7364078 0.08388,-2.7391845 l 0.0834,-1.8232303 2.390994,2.0095563 c 9.412516,7.9109275 9.687186,8.1551365 9.437989,8.3912965 -0.425417,0.403162 -11.602545,9.894758 -11.651883,9.894758 -0.02664,0 -0.08595,-0.650859 -0.131785,-1.446354 z"
     id="path3829"
     style="fill:#918570;fill-opacity:1" />
  <path
     d="m 110.41214,27.670546 c -0.0367,-0.300304 -0.1014,-1.558455 -0.14378,-2.795892 -0.0424,-1.237437 -0.10754,-2.374535 -0.1448,-2.526885 -0.0919,-0.375687 -0.24769,-0.394439 -4.67437,-0.562589 -2.08596,-0.07924 -3.92283,-0.169727 -4.08193,-0.201089 -0.28767,-0.05671 -0.28927,-0.07034 -0.28901,-2.465164 1.5e-4,-1.324478 0.0383,-3.924444 0.0848,-5.777701 l 0.0845,-3.369558 0.52589,0.058144 c 0.86583,0.09573 8.1946,0.340783 8.25921,0.276167 0.0329,-0.03287 0.10848,-1.4584095 0.16803,-3.1678714 0.0595,-1.7094619 0.12961,-3.1294613 0.15571,-3.1555544 0.0887,-0.088702 14.24896,11.8579728 14.24896,12.0215108 0,0.143635 -9.0184,7.978347 -12.62368,10.966793 l -1.50282,1.245697 -0.0667,-0.546008 0,0 z m 2.69493,-2.482897 c 4.33424,-3.54008 10.46977,-8.920028 10.46977,-9.180435 0,-0.17213 -0.65172,-0.765401 -3.59063,-3.268627 -4.33734,-3.69434 -8.54059,-7.1461833 -8.70339,-7.1474966 -0.21644,-0.00175 -0.28606,0.5311704 -0.38374,2.9374667 -0.0488,1.2028418 -0.12948,2.2528369 -0.17922,2.3333209 -0.0675,0.109306 -1.15766,0.110082 -4.3079,0.0031 -2.58531,-0.08783 -4.26352,-0.09722 -4.33645,-0.02429 -0.12448,0.124473 -0.34092,5.245988 -0.34963,8.272841 l -0.005,1.759888 0.5464,0.06802 c 0.30052,0.03741 2.28203,0.131746 4.40335,0.209632 2.12132,0.07789 3.95819,0.170428 4.08193,0.20565 0.1964,0.0559 0.22499,0.240136 0.22499,1.449839 0,2.077541 0.1408,3.739468 0.3168,3.739468 0.0824,0 0.89811,-0.611256 1.81279,-1.358348 l 0,0 z"
     id="path3850"
     style="fill:#918570;fill-opacity:1" />
</svg>
