<?xml version="1.0" encoding="UTF-8" standalone="no"?>
<!-- Created with Inkscape (http://www.inkscape.org/) -->

<svg
   xmlns:dc="http://purl.org/dc/elements/1.1/"
   xmlns:cc="http://creativecommons.org/ns#"
   xmlns:rdf="http://www.w3.org/1999/02/22-rdf-syntax-ns#"
   xmlns:svg="http://www.w3.org/2000/svg"
   xmlns="http://www.w3.org/2000/svg"
   version="1.1"
   width="128"
   height="32"
   id="svg2">
  <metadata
     id="metadata8">
    <rdf:RDF>
      <cc:Work
         rdf:about="">
        <dc:format>image/svg+xml</dc:format>
        <dc:type
           rdf:resource="http://purl.org/dc/dcmitype/StillImage" />
        <dc:title></dc:title>
      </cc:Work>
    </rdf:RDF>
  </metadata>
  <defs
     id="defs6" />
  <path
     d="m 28.342658,10.401102 -8.999541,0.25713 0,-6.2996787 -13.8850062,11.6994027 13.7564412,11.699403 0,-6.171113 9.256671,-0.25713 z"
     id="path2997"
     style="fill:none;stroke:#000000;stroke-width:1px;stroke-linecap:butt;stroke-linejoin:miter;stroke-opacity:1" />
  <path
     d="m 60.432833,10.401102 -8.999541,0.25713 0,-6.299679 -13.885006,11.699403 13.756441,11.699403 0,-6.171113 9.256671,-0.25713 z"
     id="path3001"
     style="fill:none;stroke:#000000;stroke-width:1px;stroke-linecap:butt;stroke-linejoin:miter;stroke-opacity:1" />
  <path
     d="m 124.29058,10.401106 -8.99954,0.25713 0,-6.2996796 -13.88501,11.6993996 13.75645,11.6994 0,-6.17111 9.25667,-0.25713 z"
     id="path3003"
     style="fill:none;stroke:#000000;stroke-width:1px;stroke-linecap:butt;stroke-linejoin:miter;stroke-opacity:1" />
  <path
     d="m 93.454823,11.686751 -8.999541,0.25713 0,-6.2996791 -13.885006,11.6994031 13.756441,11.699403 0,-6.171113 9.256671,-0.25713 z"
     id="path3005"
     style="fill:none;stroke:#000000;stroke-width:1px;stroke-linecap:butt;stroke-linejoin:miter;stroke-opacity:1" />
  <path
     d="m 19.702816,25.398313 0,-3.325321 0.996378,-0.07484 c 0.548007,-0.04116 2.63892,-0.112111 4.646471,-0.15766 l 3.650094,-0.08282 -0.08242,-1.16112 c -0.04533,-0.638617 -0.08242,-3.299575 -0.08242,-5.913241 l 0,-4.7521192 -2.732003,0.08091 c -1.502602,0.0445 -3.526542,0.115549 -4.497644,0.157881 l -1.76564,0.07697 -0.03427,-3.3995286 -0.03427,-3.399527 -7.43511,6.265444 C 8.2426718,13.159337 4.8871288,16.004808 4.8752198,16.036612 c -0.01191,0.0318 3.319428,2.899394 7.4029692,6.372424 l 7.424621,6.314597 0,-3.32532 z m -7.266598,-3.962766 c -3.3834732,-2.88146 -6.1668982,-5.296873 -6.1853912,-5.367584 -0.01849,-0.07071 2.812615,-2.519356 6.2913492,-5.441435 l 6.324968,-5.3128692 0.03459,2.916716 0.03459,2.9167172 1.893881,-0.07717 c 1.041635,-0.04244 3.065429,-0.113506 4.49732,-0.157921 l 2.603439,-0.08075 3.93e-4,2.811203 c 2.16e-4,1.546162 0.03799,3.802226 0.08393,5.013475 l 0.08354,2.202271 -1.787419,0.0781 c -0.983081,0.04295 -3.074675,0.114528 -4.647988,0.159056 l -2.860568,0.08096 0,2.749126 c 0,1.512021 -0.04835,2.749127 -0.107437,2.749127 -0.05909,0 -2.875733,-2.357558 -6.259207,-5.239018 z"
     id="path3009"
     style="fill:#6c5d53" />
  <path
     d="m 51.780335,25.348727 0,-3.275736 0.996378,-0.07484 c 0.548008,-0.04116 2.639485,-0.112125 4.647727,-0.157692 l 3.651349,-0.08285 -0.08367,-1.933168 c -0.04602,-1.063242 -0.08367,-3.724185 -0.08367,-5.913207 l 0,-3.9800406 -2.732003,0.08091 c -1.502602,0.0445 -3.526542,0.115549 -4.497644,0.157881 l -1.76564,0.07697 -0.03427,-3.3965258 -0.03427,-3.396527 -7.071068,5.964381 C 40.884467,12.698694 37.518627,15.536858 37.29391,15.725317 l -0.408577,0.342651 7.339365,6.235397 c 4.036651,3.429467 7.388028,6.25468 7.447504,6.27825 0.05947,0.02357 0.108137,-1.431226 0.108137,-3.232882 z m -7.260656,-3.913181 c -3.384953,-2.88146 -6.169163,-5.296873 -6.187134,-5.367584 -0.01797,-0.07071 2.812406,-2.516559 6.289723,-5.435219 l 6.322396,-5.3066536 0.03459,2.910501 0.03459,2.9105006 1.893881,-0.07717 c 1.041634,-0.04244 3.065428,-0.113506 4.49732,-0.157921 l 2.603438,-0.08075 2.96e-4,2.039814 c 1.63e-4,1.121898 0.03813,3.377951 0.08438,5.013452 l 0.08408,2.973637 -1.787864,0.07812 c -0.983325,0.04297 -3.07512,0.114552 -4.648432,0.15908 l -2.860569,0.08096 0,2.749126 c 0,1.512021 -0.0464,2.749127 -0.10312,2.749127 -0.05672,0 -2.872629,-2.357558 -6.257582,-5.239018 z"
     id="path3011"
     style="fill:#6c5d53" />
  <path
     d="m 84.789672,26.623661 0,-3.265023 0.996378,-0.07484 c 0.548008,-0.04116 2.639738,-0.112132 4.648289,-0.157708 l 3.651912,-0.08286 -0.08424,-2.704829 c -0.04633,-1.487658 -0.08424,-4.148222 -0.08424,-5.912366 l 0,-3.207536 -2.667721,0.07989 c -1.467247,0.04394 -3.492144,0.114171 -4.499771,0.156074 l -1.832049,0.07619 0,-3.3667661 c 0,-1.851721 -0.04983,-3.347481 -0.110726,-3.323911 -0.0609,0.02357 -3.43429,2.845134 -7.496424,6.2701411 l -7.3857,6.227286 0.843192,0.723043 c 3.990261,3.421654 13.912096,11.828238 13.960253,11.828238 0.03347,0 0.06085,-1.46926 0.06085,-3.265023 z m -7.30851,-3.951759 -6.21571,-5.287541 0.301725,-0.298503 c 0.165949,-0.164177 3.020872,-2.585946 6.344275,-5.381709 L 83.954,6.6209449 l 0.03459,2.905896 0.03459,2.9058961 1.893881,-0.07717 c 1.041635,-0.04244 3.065429,-0.113505 4.49732,-0.15792 l 2.603439,-0.08075 0,1.343933 c 0,0.739163 0.03808,2.99521 0.08462,5.013439 l 0.08462,3.669506 -1.788106,0.07813 c -0.983458,0.04297 -3.075361,0.114564 -4.648674,0.159093 l -2.860568,0.08096 0,2.749126 c 0,1.51202 -0.04339,2.748953 -0.09642,2.748742 -0.05303,-2.57e-4 -2.893492,-2.379778 -6.312132,-5.287924 l 0,0 z"
     id="path3013"
     style="fill:#6c5d53" />
  <path
     d="m 115.61275,25.345568 0,-3.27261 0.99637,-0.0748 c 0.54801,-0.0412 2.63989,-0.11214 4.64861,-0.15772 l 3.65223,-0.0829 -0.0846,-3.47637 c -0.0465,-1.912 -0.0846,-4.57256 -0.0846,-5.91235 l 0,-2.4359897 -2.66772,0.0799 c -1.46725,0.0439 -3.49214,0.11417 -4.49977,0.15607 l -1.83205,0.0762 0,-3.3560491 c 0,-1.84583 -0.0279,-3.35606 -0.062,-3.35606 -0.086,0 -14.68582,12.3066691 -14.77931,12.4579291 -0.0601,0.0973 13.94835,12.15798 14.55202,12.52871 0.12694,0.078 0.16071,-0.58891 0.16071,-3.17392 z m -7.33264,-3.99482 c -5.96127,-5.071 -6.1745,-5.26779 -5.94978,-5.49082 0.1282,-0.12723 2.98116,-2.54492 6.33991,-5.37266 l 6.10683,-5.1413296 0.0346,2.90056 0.0346,2.9005596 1.89388,-0.0772 c 1.04163,-0.0424 3.056,-0.11316 4.47637,-0.15716 l 2.58249,-0.08 0.0852,3.12053 c 0.0469,1.71629 0.0852,3.97247 0.0852,5.01373 l 0,1.8932 -1.76776,0.0771 c -0.97228,0.0424 -3.05503,0.11351 -4.62834,0.15803 l -2.86057,0.081 0,2.75985 c 0,1.72985 -0.0466,2.74384 -0.12491,2.71698 -0.0687,-0.0236 -2.90721,-2.40963 -6.30777,-5.30235 l 0,0 z"
     id="path3015"
     style="fill:#d3cebb;fill-opacity:1" />
  <path
     d="m 83.735439,25.034064 0,-2.700502 3.117698,-0.08131 c 1.714734,-0.04472 3.797485,-0.115764 4.628336,-0.157874 l 1.510637,-0.07656 -4.71e-4,-3.039209 c -2.58e-4,-1.671564 -0.03846,-3.869604 -0.08488,-4.884532 l -0.08441,-1.845323 -2.518554,0.07897 c -1.385204,0.04343 -3.40083,0.11335 -4.479168,0.155375 l -1.960614,0.07641 0,-2.7776812 c 0,-1.527724 -0.02804,-2.77768 -0.06232,-2.77768 -0.07557,0 -12.279907,10.2765712 -12.279907,10.3402072 0,0.03946 11.41107,9.761274 11.988674,10.21391 0.212729,0.166705 0.224988,0.02917 0.224988,-2.52419 z"
     id="path3785"
     style="fill:#d3cebb;fill-opacity:1" />
  <path
     d="m 50.726102,23.740896 0,-2.691712 3.053415,-0.08218 c 1.679379,-0.0452 3.76213,-0.117097 4.628336,-0.159767 l 1.574919,-0.07758 -3.37e-4,-2.266563 c -1.86e-4,-1.24661 -0.03849,-3.444079 -0.08512,-4.883266 l -0.08478,-2.616704 -2.518322,0.07896 c -1.385077,0.04343 -3.400598,0.113342 -4.478936,0.155366 l -1.960615,0.07641 0,-2.7776807 c 0,-1.527725 -0.03175,-2.777681 -0.07055,-2.777681 -0.0859,0 -12.115453,10.1364167 -12.208804,10.2874607 -0.05383,0.0871 11.446224,9.992695 11.990079,10.327674 0.1266,0.07798 0.160707,-0.472276 0.160707,-2.592727 z"
     id="path3787"
     style="fill:#d3cebb;fill-opacity:1" />
  <path
     d="m 18.648576,23.733312 0,-2.684125 3.053416,-0.08218 c 1.679378,-0.0452 3.76213,-0.117097 4.628335,-0.159767 l 1.57492,-0.07758 -2.49e-4,-1.302327 c -1.38e-4,-0.716279 -0.03852,-2.914146 -0.08529,-4.88415 l -0.08504,-3.581823 -2.582429,0.07998 c -1.420336,0.04399 -3.435779,0.114764 -4.478761,0.15727 l -1.896332,0.07728 0,-2.8419881 0,-2.841987 -6.135359,5.1737401 c -3.3744472,2.845557 -6.1369852,5.228085 -6.1389712,5.294507 -0.0034,0.113409 11.9470712,10.357269 12.0827672,10.357269 0.03465,0 0.063,-1.207855 0.063,-2.684123 z"
     id="path3789"
     style="fill:#d3cebb;fill-opacity:1" />
  <path
     d="m 114.55863,23.748512 0,-2.70051 3.1177,-0.0813 c 1.71474,-0.0447 3.79749,-0.11576 4.62834,-0.15787 l 1.51064,-0.0766 0,-3.69442 c 0,-2.03194 -0.038,-4.23034 -0.0845,-4.88534 l -0.0845,-1.19092 -2.45462,0.0798 c -1.35005,0.0439 -3.36468,0.11464 -4.47698,0.15718 l -2.02234,0.0773 -0.0347,-2.7964696 -0.0347,-2.79647 -6.14899,5.1795996 -6.14898,5.1796 0.29928,0.28369 c 0.27531,0.26096 11.20832,9.54563 11.71256,9.94668 0.20864,0.16595 0.22184,0.0157 0.22184,-2.52405 z"
     id="path3791"
     style="fill:#d3cebb;fill-opacity:1" />
  <path
     d="m 115.50416,27.667717 c 0.0444,-0.36944 0.0812,-1.78279 0.0818,-3.14077 l 0.001,-2.46904 0.41784,-0.068 c 0.22981,-0.0374 2.28865,-0.12218 4.57521,-0.18841 2.28655,-0.0662 4.17426,-0.13949 4.1949,-0.16281 0.0206,-0.0233 0.007,-2.66448 -0.0296,-5.86922 l -0.0671,-5.8268006 -0.91366,0.0711 c -0.50251,0.0391 -2.2443,0.10292 -3.87064,0.14177 -1.62635,0.0389 -3.2318,0.10321 -3.56768,0.14302 l -0.61068,0.0724 -0.0168,-2.3583688 c -0.009,-1.29711 -0.0526,-2.78607 -0.0964,-3.30881 l -0.0796,-0.95043 -4.49977,3.77205 c -3.76887,3.1593688 -9.42852,7.9476788 -9.89949,8.3754088 -0.0833,0.0757 -0.0334,0.19352 0.14182,0.33481 0.14871,0.11992 1.62399,1.40605 3.2784,2.85805 3.9003,3.423131 10.37491,8.947771 10.73653,9.161241 0.0943,0.0556 0.17074,-0.14494 0.22387,-0.5872 l 0,0 z m -4.48824,-3.91866 c -6.62004,-5.56529 -8.80777,-7.50742 -8.79307,-7.80592 0.004,-0.0727 0.45813,-0.50833 1.01011,-0.96795 0.55197,-0.45962 3.33219,-2.80272 6.17826,-5.2068806 2.84607,-2.40416 5.21765,-4.38758 5.27017,-4.40759 0.0525,-0.02 0.13707,1.25187 0.18788,2.82641 0.0508,1.57454 0.10294,2.8708206 0.11583,2.8806206 0.0219,0.0167 3.69026,-0.11276 7.24587,-0.25563 l 1.56558,-0.0629 0.0688,0.7952 c 0.0378,0.43736 0.10195,2.71193 0.14247,5.05459 l 0.0737,4.2594 -0.67954,0.0749 c -0.37374,0.0412 -2.03911,0.10719 -3.70081,0.14665 -1.6617,0.0395 -3.44072,0.1044 -3.95337,0.1443 l -0.9321,0.0726 0,1.70526 c 0,1.8562 -0.12065,3.67293 -0.24385,3.67185 -0.0427,-3.9e-4 -1.64282,-1.31656 -3.55592,-2.92486 z"
     id="path3793"
     style="fill:#60534a;fill-opacity:1" />
  <path
     d="m 115.37503,27.863784 c 0.0343,-0.12374 0.10085,-1.46885 0.1478,-2.98913 0.047,-1.52028 0.12401,-2.804 0.17123,-2.85271 0.0472,-0.0487 1.90826,-0.15337 4.13564,-0.23259 2.22739,-0.0792 4.23782,-0.17216 4.46763,-0.20654 l 0.41784,-0.0625 0,-3.44482 c 0,-1.89464 -0.0375,-4.481 -0.0833,-5.74745 l -0.0833,-2.30263 -2.3916,0.0972 c -1.31538,0.0535 -3.28834,0.14372 -4.38435,0.20055 -1.09602,0.0568 -2.02169,0.0807 -2.05704,0.0531 -0.0354,-0.0276 -0.0996,-1.4774596 -0.1428,-3.2218296 -0.0432,-1.74436 -0.0866,-3.18845 -0.0964,-3.20909 -0.01,-0.0206 -0.90018,0.70175 -1.97852,1.60531 -3.66764,3.07319 -11.98791,10.0987596 -12.18152,10.2859896 -0.17062,0.16501 -0.14683,0.22612 0.20638,0.53032 0.21958,0.1891 2.50482,2.16721 5.07832,4.39579 4.83292,4.18519 8.54117,7.32603 8.64951,7.32603 0.0341,0 0.0901,-0.10125 0.12446,-0.22499 l 0,0 z m -2.83387,-2.75953 c -2.39195,-1.9729 -7.85866,-6.64849 -9.26973,-7.92826 -0.76529,-0.69408 -1.05557,-1.0405 -1.02852,-1.22743 0.0222,-0.15363 0.93397,-1.01859 2.22329,-2.10924 6.51975,-5.5151096 10.15089,-8.4991396 10.23598,-8.4118196 0.0526,0.054 0.15338,1.30413 0.22397,2.77813 0.0706,1.474 0.15536,2.7070096 0.18838,2.7400196 0.033,0.033 1.98085,-0.0102 4.32853,-0.0961 3.46588,-0.12679 4.28767,-0.12514 4.37043,0.009 0.0561,0.0907 0.13804,1.76283 0.18216,3.71582 0.0441,1.95299 0.0948,4.17121 0.11252,4.92938 l 0.0323,1.3785 -0.32334,0.0626 c -0.17783,0.0344 -2.14573,0.12509 -4.37312,0.20149 -2.22739,0.0764 -4.17997,0.16666 -4.33906,0.20057 -0.28594,0.061 -0.28929,0.0865 -0.29069,2.21268 -0.001,2.19653 -0.0796,3.11524 -0.26502,3.11524 -0.0573,0 -0.96096,-0.70663 -2.00808,-1.5703 l 0,0 z"
     id="path3795"
     style="fill:#60534a;fill-opacity:1" />
  <path
     d="m 115.37498,27.86374 c 0.0343,-0.12375 0.10085,-1.46886 0.1478,-2.98914 0.047,-1.52028 0.12401,-2.80323 0.17123,-2.851 0.0472,-0.0478 1.90826,-0.15255 4.13564,-0.23285 2.22739,-0.0803 4.24663,-0.17566 4.48719,-0.21191 l 0.4374,-0.0659 -0.0714,-5.72068 c -0.0393,-3.14637 -0.0915,-5.7342 -0.11598,-5.75073 -0.0432,-0.0292 -2.69283,0.0773 -6.81232,0.27367 l -2.01088,0.0959 -0.0772,-0.6428196 c -0.0425,-0.35355 -0.0777,-1.63358 -0.0783,-2.8445 -6.2e-4,-1.21092 -0.0366,-2.37925 -0.08,-2.59628 l -0.0789,-0.39461 -3.03878,2.54679 c -6.66406,5.5851396 -11.13836,9.4121096 -11.13836,9.5268696 0,0.13164 0.70423,0.75654 6.30325,5.59324 4.04228,3.49191 7.59649,6.48898 7.69524,6.48898 0.0341,0 0.0901,-0.10124 0.12446,-0.22498 l 0,0 z m -2.49774,-2.49646 c -2.15823,-1.76647 -8.85976,-7.50104 -9.85744,-8.43512 -0.44194,-0.41377 -0.80353,-0.82852 -0.80353,-0.92166 0,-0.24406 0.47744,-0.6698 5.33544,-4.75774 6.13591,-5.1632796 6.99664,-5.8531796 7.13209,-5.7165896 0.0643,0.0649 0.17426,1.29525 0.24425,2.73413 0.07,1.43888 0.15406,2.6429396 0.18682,2.6756996 0.0328,0.0328 1.97666,-0.01 4.31977,-0.0943 2.34312,-0.0846 4.3005,-0.11356 4.34973,-0.0643 0.10382,0.10382 0.26188,3.89574 0.31525,7.56292 l 0.037,2.53951 -0.3857,0.0608 c -0.21213,0.0335 -2.17917,0.12255 -4.3712,0.19797 -2.19203,0.0754 -4.11569,0.16469 -4.27478,0.19838 -0.28595,0.0606 -0.28929,0.086 -0.29069,2.21227 -0.001,2.14076 -0.0797,3.11525 -0.25031,3.11525 -0.0492,0 -0.80823,-0.58826 -1.68666,-1.30724 l 0,0 z"
     id="path3797"
     style="fill:#60534a;fill-opacity:1" />
  <path
     d="m 115.37636,27.863754 c 0.0351,-0.12374 0.10352,-1.45285 0.15208,-2.95357 0.0575,-1.77657 0.13919,-2.77062 0.23415,-2.84905 0.0802,-0.0663 1.93934,-0.18677 4.13137,-0.26782 2.19203,-0.0811 4.17353,-0.17564 4.40334,-0.21019 l 0.41784,-0.0628 -4.3e-4,-3.7547 c -2.3e-4,-2.06508 -0.0382,-4.66474 -0.0843,-5.77702 -0.0815,-1.96426 -0.0916,-2.0207196 -0.35313,-1.96663 -0.46648,0.0965 -8.44388,0.35695 -8.52257,0.27826 -0.0413,-0.0413 -0.11074,-1.4606696 -0.1544,-3.1542596 -0.0437,-1.69358 -0.10791,-3.10748 -0.14276,-3.142 -0.0677,-0.0671 -0.34972,0.16698 -8.77363,7.2829596 -3.02289,2.55353 -5.49615,4.68046 -5.49615,4.72649 0,0.15973 13.87675,12.07536 14.06277,12.07536 0.0341,0 0.0907,-0.10125 0.12582,-0.22499 z m -2.61775,-2.61413 c -2.57789,-2.11074 -9.09218,-7.70361 -9.86736,-8.47165 -0.37123,-0.36781 -0.67496,-0.72715 -0.67496,-0.79852 0,-0.0714 0.18802,-0.30624 0.41783,-0.52193 1.13425,-1.06454 11.39037,-9.6506396 11.77115,-9.8544196 0.3688,-0.19738 0.38477,-0.11157 0.53263,2.86164 0.0663,1.33368 0.14663,2.4509196 0.17845,2.4827396 0.0318,0.0318 1.97591,-0.0104 4.32018,-0.0939 2.34427,-0.0835 4.30072,-0.11334 4.34766,-0.0664 0.11763,0.11763 0.26741,4.07459 0.27874,7.36408 l 0.009,2.72618 -0.41783,0.0668 c -0.22981,0.0367 -2.18239,0.12822 -4.33907,0.20333 -2.15667,0.0751 -4.0514,0.16449 -4.21049,0.19863 -0.28592,0.0614 -0.28929,0.087 -0.29069,2.21309 -0.001,2.10038 -0.0799,3.11718 -0.2404,3.11335 -0.0438,-10e-4 -0.86063,-0.64139 -1.81522,-1.423 z"
     id="path3799"
     style="fill:#60534a;fill-opacity:1" />
  <path
     d="m 115.38514,27.799542 c 0.033,-0.1591 0.095,-1.33064 0.13775,-2.60344 0.0959,-2.85609 0.13484,-3.10806 0.49432,-3.1955 0.15235,-0.0371 2.04155,-0.13316 4.19823,-0.21355 2.15667,-0.0804 4.0514,-0.17177 4.2105,-0.20305 l 0.28927,-0.0569 -4.3e-4,-3.75808 c -2.3e-4,-2.06694 -0.0381,-4.66604 -0.0841,-5.77579 l -0.0837,-2.0177096 -0.33372,0.0528 c -0.52496,0.0831 -8.38006,0.35033 -8.44317,0.28722 -0.0311,-0.0311 -0.0877,-1.2372588 -0.12576,-2.6803488 -0.0381,-1.4431 -0.0991,-2.87065 -0.1357,-3.17234 l -0.0665,-0.54852 -0.97502,0.80565 c -1.55319,1.2834 -12.9378,10.9049688 -13.15073,11.1141888 -0.17095,0.16797 -0.14052,0.23578 0.26806,0.59733 3.79418,3.35739 13.52483,11.65727 13.66681,11.65727 0.0406,0 0.10084,-0.13017 0.13387,-0.28927 l 0,0 z m -5.48643,-4.95114 c -3.85378,-3.25978 -6.56703,-5.63138 -7.2253,-6.31548 l -0.50718,-0.5271 0.37862,-0.40281 c 0.88376,-0.94024 11.73785,-10.0130496 11.97893,-10.0130496 0.23247,0 0.27949,0.33344 0.41458,2.94024 0.0673,1.29893 0.14876,2.3880496 0.18099,2.4202796 0.0322,0.0322 1.9775,-0.009 4.32284,-0.0912 2.34534,-0.0824 4.29917,-0.11489 4.34184,-0.0722 0.10854,0.10854 0.26791,4.38803 0.27904,7.49287 l 0.009,2.59761 -0.41783,0.0656 c -0.22981,0.036 -2.18239,0.12762 -4.33907,0.20347 -2.15667,0.0759 -4.04607,0.16444 -4.19866,0.19688 -0.27065,0.0575 -0.2785,0.11944 -0.32141,2.53436 -0.0242,1.36147 -0.0913,2.54849 -0.14906,2.63783 -0.13053,0.20177 -0.62693,-0.18166 -4.74764,-3.66722 l 0,0 z"
     id="path3801"
     style="fill:#60534a;fill-opacity:1" />
  <path
     d=""
     id="path3803"
     style="fill:#60534a;fill-opacity:1" />
  <path
     d=""
     id="path3805"
     style="fill:#60534a;fill-opacity:1" />
  <path
     d=""
     id="path3807"
     style="fill:#60534a;fill-opacity:1" />
  <path
     d=""
     id="path3809"
     style="fill:#60534a;fill-opacity:1" />
  <path
     d=""
     id="path3811"
     style="fill:#60534a;fill-opacity:1" />
  <path
     d=""
     id="path3813"
     style="fill:#60534a;fill-opacity:1" />
  <path
     d=""
     id="path3815"
     style="fill:#60534a;fill-opacity:1" />
  <path
     d="m 84.680723,28.450502 c 0.04578,-0.644939 0.08323,-2.054197 0.08323,-3.131685 0,-1.925547 0.005,-1.960242 0.289271,-2.02781 0.159099,-0.03781 1.706699,-0.103196 3.43911,-0.145304 1.732412,-0.04211 3.674036,-0.108804 4.314721,-0.148214 l 1.164881,-0.07166 -0.05484,-5.807387 c -0.03016,-3.194063 -0.06266,-5.817087 -0.07221,-5.828944 -0.02277,-0.02826 -6.380963,0.186799 -7.811969,0.264233 l -1.109484,0.06004 -0.05254,-3.1989952 c -0.0289,-1.759448 -0.08975,-3.236205 -0.135225,-3.281683 -0.04548,-0.04548 -1.518538,1.121333 -3.273466,2.592913 -6.657523,5.5826082 -11.214902,9.4412152 -11.285077,9.5547622 -0.05785,0.0936 13.698112,11.903658 14.26855,12.250143 0.110229,0.06695 0.174599,-0.228939 0.235038,-1.08041 z m -3.323734,-2.432066 c -6.528842,-5.473486 -10.095106,-8.55137 -10.063374,-8.685247 0.01942,-0.08194 2.179299,-1.962203 4.799726,-4.178358 6.902206,-5.8373552 7.736509,-6.5363892 7.801239,-6.5363892 0.03205,0 0.09898,1.285277 0.148733,2.856172 0.04975,1.5708942 0.102075,2.8652602 0.116279,2.8763692 0.0229,0.01791 1.519781,-0.03361 7.302131,-0.251352 l 1.619453,-0.06098 0.07342,5.03583 c 0.04038,2.769707 0.04834,5.060905 0.0177,5.091552 -0.03065,0.03065 -1.747033,0.105231 -3.814191,0.165742 -2.067158,0.06051 -4.120058,0.14133 -4.562,0.179599 l -0.80353,0.06958 0,1.705995 c 0,1.856906 -0.120641,3.673758 -0.243854,3.672423 -0.04266,-4.63e-4 -1.118934,-0.873882 -2.391726,-1.940935 z"
     id="path3817"
     style="fill:#60534a;fill-opacity:1" />
  <path
     d="m 84.564075,29.163839 c 0.04531,-0.180542 0.111115,-1.520035 0.146227,-2.97665 0.03511,-1.456615 0.120726,-2.716934 0.190253,-2.800709 0.07694,-0.0927 0.590721,-0.164212 1.312699,-0.182703 0.652456,-0.01671 1.533409,-0.04634 1.957673,-0.06585 0.424264,-0.0195 1.869,-0.07383 3.210524,-0.120722 1.341524,-0.04689 2.458135,-0.10426 2.481359,-0.127483 0.07684,-0.07684 0.03311,-8.205006 -0.05313,-9.87518 L 93.72504,11.37534 93.133584,11.35509 c -0.325301,-0.01114 -0.678238,-0.0124 -0.784304,-0.0028 -0.106066,0.0096 -1.06066,0.04687 -2.12132,0.08281 -1.06066,0.03595 -2.688194,0.09622 -3.616741,0.133949 l -1.688269,0.06859 -0.09453,-3.2131821 c -0.08582,-2.917148 -0.113878,-3.202593 -0.304487,-3.098242 -0.17799,0.09744 -0.858875,0.642017 -3.907039,3.124872 -0.19492,0.158771 -0.508218,0.447773 -0.696218,0.642227 -0.187999,0.194455 -0.396244,0.353554 -0.462767,0.353554 -0.06652,0 -0.234721,0.144635 -0.373775,0.321412 -0.139053,0.176777 -0.310212,0.3214121 -0.380356,0.3214121 -0.07014,0 -0.273708,0.173718 -0.452365,0.386039 -0.178657,0.212322 -0.377411,0.353543 -0.441677,0.313825 -0.06427,-0.03972 -0.116846,-0.01823 -0.116846,0.04775 0,0.06598 -0.520687,0.565283 -1.157084,1.109562 -0.636396,0.54428 -1.157083,0.968999 -1.157083,0.943821 0,-0.02518 -0.357389,0.285963 -0.794196,0.691425 -0.436808,0.405463 -0.841787,0.707791 -0.899954,0.671842 -0.05817,-0.03595 -0.105759,-0.0074 -0.105759,0.06339 0,0.07081 -0.723177,0.74402 -1.60706,1.496019 -0.883884,0.751999 -1.607061,1.418215 -1.607061,1.480479 0,0.06227 0.89674,0.905583 1.992755,1.874042 1.096016,0.968459 1.992756,1.809785 1.992756,1.869612 0,0.05983 0.04612,0.09431 0.102498,0.07664 0.120109,-0.03766 2.468799,1.96536 2.468799,2.105456 0,0.05223 0.101245,0.12843 0.224989,0.169337 0.123743,0.04091 0.539339,0.367158 0.923548,0.725005 0.384207,0.357848 0.802326,0.723313 0.929151,0.812144 0.202998,0.142185 1.118783,0.92246 1.976705,1.684207 0.159277,0.141421 0.537173,0.459619 0.839769,0.707106 0.690049,0.564377 1.226728,1.018737 1.594508,1.349932 0.157043,0.141421 0.462379,0.384851 0.678524,0.540956 l 0.392992,0.283824 0.08239,-0.328259 0,0 z M 83.287752,27.606657 C 83.05821,27.412203 82.680861,27.108469 82.449199,26.931692 82.217537,26.754915 81.877018,26.483843 81.692492,26.329308 81.507965,26.174773 80.923083,25.688151 80.392753,25.247927 79.862422,24.807701 79.312808,24.342769 79.171386,24.214746 79.029965,24.086722 78.69074,23.792313 78.417554,23.560502 78.144366,23.328691 77.788903,23.02332 77.627632,22.881898 77.466363,22.740477 77.087863,22.422279 76.786522,22.174792 76.48518,21.927304 76.109128,21.609106 75.95085,21.467685 75.792572,21.326264 75.415916,21.008065 75.113838,20.760578 74.571429,20.316192 73.875366,19.721476 73.458624,19.346365 73.340788,19.240299 72.792129,18.751708 72.239383,18.260607 l -1.004991,-0.892909 0.504678,-0.457021 c 1.835471,-1.662148 3.383848,-3.012552 3.590959,-3.131824 0.09885,-0.05693 0.314674,-0.230489 0.479602,-0.385694 0.329027,-0.309628 0.950258,-0.842567 1.677719,-1.439274 0.258616,-0.212132 0.603977,-0.501403 0.767468,-0.642825 0.163492,-0.141421 0.512896,-0.430692 0.776453,-0.642824 0.263557,-0.212132 0.609139,-0.501403 0.767961,-0.642824 0.158822,-0.1414221 0.528233,-0.4505151 0.820913,-0.6868741 0.292682,-0.236359 0.670439,-0.554557 0.83946,-0.707107 0.169022,-0.152549 0.554161,-0.479852 0.855865,-0.72734 0.301703,-0.247487 0.701229,-0.583345 0.887836,-0.746351 0.74863,-0.653946 0.787688,-0.638218 0.804549,0.323992 0.04155,2.370894 0.107248,3.9982431 0.176662,4.3757291 0.06694,0.36402 0.129898,0.419797 0.488843,0.433061 0.226606,0.0084 0.450355,0.01006 0.49722,0.0037 0.09587,-0.01292 3.036218,-0.118889 5.98948,-0.215851 l 1.960615,-0.06437 0.0084,1.319856 c 0.0046,0.72592 0.03588,3.005681 0.06949,5.066136 l 0.06112,3.746281 -1.258716,0.08107 c -1.542445,0.09934 -3.477273,0.18575 -6.003659,0.268129 -1.054083,0.03437 -1.932572,0.07855 -1.952198,0.09818 -0.01962,0.01963 -0.04432,0.93139 -0.05488,2.026142 -0.01966,2.03813 -0.10561,3.340389 -0.22046,3.340389 -0.03555,0 -0.252445,-0.159099 -0.481987,-0.353554 l 0,0 z"
     id="path3819"
     style="fill:#60534a;fill-opacity:1" />
  <path
     d="m 84.564154,29.28191 c 0.04632,-0.120695 0.111103,-1.378656 0.143973,-2.795469 0.03287,-1.416813 0.08803,-2.702683 0.122571,-2.857491 0.07777,-0.348515 0.360926,-0.390019 3.340229,-0.4896 3.92576,-0.131216 5.648993,-0.206735 5.69169,-0.249433 0.07784,-0.07784 0.03122,-9.254321 -0.05278,-10.389632 l -0.08323,-1.124942 -0.592237,-0.02025 c -0.32573,-0.01114 -0.679018,-0.01468 -0.785084,-0.0079 -0.106066,0.0068 -1.234222,0.0462 -2.507015,0.08752 -1.272792,0.04133 -2.907173,0.103397 -3.631957,0.137938 l -1.31779,0.0628 -0.01743,-1.7049898 c -0.0096,-0.937745 -0.05298,-2.39558 -0.09642,-3.239634 l -0.07899,-1.534643 -1.799909,1.442844 c -2.162207,1.733271 -2.542498,2.043788 -3.015357,2.462115 -0.199821,0.176776 -0.543623,0.466047 -0.764004,0.642824 -0.220379,0.176777 -0.554509,0.4805118 -0.742508,0.6749658 -0.187999,0.194454 -0.419034,0.353553 -0.513412,0.353553 -0.09438,0 -0.171596,0.04763 -0.171596,0.105845 0,0.09642 -2.10478,1.951193 -2.214203,1.951193 -0.02586,0 -0.391596,0.318176 -0.812742,0.707058 -0.421146,0.388882 -0.838037,0.70708 -0.926425,0.707107 -0.08839,2.7e-5 -0.160707,0.0471 -0.160707,0.104598 0,0.0575 -0.723177,0.727902 -1.60706,1.489778 -0.883884,0.761877 -1.607061,1.433752 -1.607061,1.493056 0,0.0593 0.795495,0.815958 1.767767,1.681453 0.972271,0.865493 1.912402,1.707708 2.089179,1.871586 0.176776,0.163879 0.813174,0.712944 1.414214,1.220147 0.601041,0.507204 1.150656,0.988729 1.221367,1.070057 0.07071,0.08133 0.331054,0.299431 0.578542,0.484673 0.247487,0.185243 0.671477,0.538225 0.9422,0.784408 0.270722,0.246181 0.758269,0.66986 1.083437,0.941507 0.325167,0.271649 0.653282,0.552001 0.729143,0.623005 0.219271,0.205231 1.901799,1.627082 2.509602,2.120787 0.304684,0.247487 0.648587,0.53754 0.764229,0.644561 0.115642,0.107021 0.391454,0.323607 0.612916,0.481302 0.366891,0.261249 0.410137,0.267224 0.486866,0.06727 l 0,0 z m -1.658009,-1.996665 c -0.445673,-0.371231 -1.029538,-0.848528 -1.297477,-1.06066 -0.629598,-0.498461 -2.188788,-1.814651 -2.76184,-2.331407 -0.245757,-0.221612 -1.285717,-1.107447 -2.311022,-1.968521 -1.025304,-0.861073 -2.008827,-1.693816 -2.185603,-1.850539 -0.176777,-0.156724 -0.943345,-0.82256 -1.703485,-1.479637 -0.76014,-0.657076 -1.382072,-1.213515 -1.382072,-1.236529 0,-0.02302 0.593005,-0.55202 1.31779,-1.175568 0.724784,-0.623547 1.346717,-1.172312 1.382072,-1.219476 0.03535,-0.04716 0.324626,-0.300366 0.642824,-0.562671 1.030372,-0.84938 1.601285,-1.324164 1.883457,-1.566326 0.152018,-0.130461 0.52807,-0.447161 0.835672,-0.703777 0.307602,-0.256615 1.873822,-1.572798 3.480488,-2.9248508 1.606666,-1.352052 2.980703,-2.458276 3.053415,-2.458276 0.07897,0 0.14027,0.453027 0.152231,1.124942 0.04403,2.4735868 0.08963,3.5551178 0.167325,3.9692898 0.07956,0.424086 0.239265,0.500022 0.969733,0.46108 0.03535,-0.0019 1.134585,-0.04063 2.442732,-0.08609 1.308148,-0.04547 3.087164,-0.108754 3.95337,-0.14064 l 1.57492,-0.05798 0.01,2.539434 c 0.0055,1.396688 0.0354,3.676285 0.06645,5.065772 l 0.05645,2.526337 -1.448527,0.07333 c -5.16719,0.261581 -7.151478,0.33725 -7.310219,0.278767 -0.405147,-0.14926 -0.469548,0.130211 -0.546927,2.373403 -0.04268,1.237437 -0.07903,2.437911 -0.08076,2.667721 -0.0017,0.22981 -0.03635,0.417836 -0.07692,0.417836 -0.04058,0 -0.438414,-0.303735 -0.884086,-0.674966 l 0,0 z"
     id="path3821"
     style="fill:#60534a;fill-opacity:1" />
  <path
     d=""
     id="path3823"
     style="fill:#60534a;fill-opacity:1" />
  <path
     d="m 19.677097,25.354269 0,-3.280167 0.289271,-0.06874 c 0.159099,-0.03781 1.706699,-0.1032 3.43911,-0.145307 1.732412,-0.04211 3.670528,-0.108513 4.306924,-0.147565 l 1.157084,-0.071 -0.0406,-5.805785 c -0.02233,-3.193183 -0.05126,-5.816284 -0.06428,-5.829114 -0.03301,-0.03252 -6.607546,0.186851 -7.881674,0.262988 l -1.044064,0.06239 -0.113027,-3.3291734 -0.113026,-3.329173 -2.764145,2.326839 C 6.7484838,14.502731 4.9950208,16.03316 5.1689678,16.194548 c 0.335918,0.311665 6.7686362,5.828406 9.8155112,8.417845 1.697057,1.442273 3.447146,2.937253 3.889088,3.322181 l 0.80353,0.699867 0,-3.280167 0,0 z M 15.622989,24.197553 C 13.99427,22.837546 11.201737,20.459239 9.4173588,18.912425 6.6278108,16.494263 6.1958938,16.072205 6.3361168,15.901506 6.6744728,15.489608 18.512849,5.4463536 18.76076,5.3608826 c 0.05774,-0.01991 0.145743,1.250907 0.195564,2.82403 0.04982,1.573123 0.102203,2.8693134 0.116407,2.8804214 0.02291,0.01792 1.546763,-0.03455 7.306737,-0.251556 l 1.624059,-0.06119 0.05701,5.036135 c 0.03136,2.769874 0.03725,5.061165 0.01309,5.091757 -0.02416,0.03059 -1.735236,0.10513 -3.802394,0.165642 -2.067158,0.06051 -4.120058,0.14133 -4.562,0.179598 l -0.80353,0.06958 0,1.705995 c 0,1.857442 -0.120699,3.674519 -0.243854,3.671128 -0.04266,-0.0012 -1.410146,-1.114869 -3.038865,-2.474874 l 0,0 z"
     id="path3825"
     style="fill:#60534a;fill-opacity:1" />
  <path
     d="m 83.650929,25.999597 c 0.04584,-0.795496 0.0836,-1.946872 0.08393,-2.558615 l 5.85e-4,-1.11226 1.446355,-0.07577 c 0.795495,-0.04167 2.844518,-0.1197 4.553385,-0.173389 1.708867,-0.05369 3.144982,-0.135588 3.191367,-0.181999 0.09184,-0.09189 -0.10309,-9.44808 -0.198842,-9.543831 -0.05199,-0.05199 -4.713664,0.08216 -7.738757,0.222712 l -1.124943,0.05227 -4.76e-4,-0.915954 c -2.57e-4,-0.503775 -0.038,-1.7364079 -0.08388,-2.7391839 l -0.0834,-1.823231 -2.390994,2.009557 c -9.412516,7.9109269 -9.687186,8.1551359 -9.437989,8.3912959 0.425417,0.403162 11.602545,9.894758 11.651883,9.894758 0.02664,0 0.08595,-0.650859 0.131785,-1.446354 z"
     id="path3829"
     style="fill:#918570;fill-opacity:1" />
  <path
     d="m 115.40678,27.670594 c 0.0367,-0.3003 0.1014,-1.55845 0.14378,-2.79589 0.0424,-1.23744 0.10754,-2.37453 0.1448,-2.52688 0.0919,-0.37569 0.24769,-0.39444 4.67437,-0.56259 2.08596,-0.0792 3.92283,-0.16973 4.08193,-0.20109 0.28767,-0.0567 0.28927,-0.0703 0.28901,-2.46517 -1.5e-4,-1.32447 -0.0383,-3.92444 -0.0848,-5.7777 l -0.0845,-3.3695596 -0.52589,0.0581 c -0.86583,0.0957 -8.1946,0.34078 -8.25921,0.27617 -0.0329,-0.0329 -0.10848,-1.4584098 -0.16803,-3.1678798 -0.0595,-1.70946 -0.12961,-3.12946 -0.15571,-3.15555 -0.0887,-0.0887 -14.24896,11.8579698 -14.24896,12.0215098 0,0.14364 9.0184,7.97835 12.62368,10.96679 l 1.50282,1.2457 0.0667,-0.54601 0,0 z m -2.69493,-2.48289 c -4.33424,-3.54008 -10.46977,-8.92003 -10.46977,-9.18044 0,-0.17213 0.65172,-0.7654 3.59063,-3.26863 4.33734,-3.6943396 8.54059,-7.1461796 8.70339,-7.1474896 0.21644,-0.002 0.28606,0.53117 0.38374,2.93746 0.0488,1.20285 0.12948,2.2528396 0.17922,2.3333196 0.0675,0.10931 1.15766,0.11009 4.3079,0.003 2.58531,-0.0878 4.26352,-0.0972 4.33645,-0.0243 0.12448,0.12448 0.34092,5.24599 0.34963,8.27285 l 0.005,1.75988 -0.5464,0.068 c -0.30052,0.0374 -2.28203,0.13175 -4.40335,0.20964 -2.12132,0.0779 -3.95819,0.17042 -4.08193,0.20565 -0.1964,0.0559 -0.22499,0.24013 -0.22499,1.44983 0,2.07755 -0.1408,3.73947 -0.3168,3.73947 -0.0824,0 -0.89811,-0.61125 -1.81279,-1.35835 l 0,0 z"
     id="path3850"
     style="fill:#918570;fill-opacity:1" />
</svg>
